<mxfile host="app.diagrams.net" modified="2022-01-05T08:48:42.262Z" agent="5.0 (Macintosh; Intel Mac OS X 10_15_7) AppleWebKit/537.36 (KHTML, like Gecko) Chrome/96.0.4664.110 Safari/537.36" etag="rSgEIi8hUqz7aHnvfS23" version="16.2.1" type="github">
  <diagram id="mj0M0st0dYmxVC5K6Ced" name="Page-1">
    <mxGraphModel dx="923" dy="594" grid="1" gridSize="10" guides="1" tooltips="1" connect="1" arrows="1" fold="1" page="1" pageScale="1" pageWidth="827" pageHeight="1169" math="0" shadow="0">
      <root>
        <mxCell id="0" />
        <mxCell id="1" parent="0" />
        <mxCell id="XtmpIoguSaSGadjG0y6x-1" value="&lt;span style=&quot;font-family: &amp;quot;helvetica neue&amp;quot;, helvetica, arial, sans-serif; font-size: 16px;&quot;&gt;按照性能排序：&lt;br style=&quot;font-size: 16px&quot;&gt;count(*) = count(1) &amp;gt; count(主键字段) &amp;gt; count(字段)&lt;/span&gt;" style="rounded=1;whiteSpace=wrap;html=1;fontSize=16;fillColor=#fff2cc;strokeColor=#d6b656;labelBackgroundColor=none;gradientColor=#ffd966;" vertex="1" parent="1">
          <mxGeometry x="120" y="120" width="390" height="110" as="geometry" />
        </mxCell>
      </root>
    </mxGraphModel>
  </diagram>
</mxfile>
